<mxfile host="app.diagrams.net" modified="2021-12-10T22:40:24.510Z" agent="5.0 (X11)" etag="an1owULwKBJPvfNWVmdY" version="15.9.1" type="github">
  <diagram id="jmx6u4F9QZl8LQXiIBYf" name="Page-1">
    <mxGraphModel dx="768" dy="794" grid="1" gridSize="10" guides="1" tooltips="1" connect="1" arrows="1" fold="1" page="1" pageScale="1" pageWidth="827" pageHeight="1169" math="0" shadow="0">
      <root>
        <mxCell id="0" />
        <mxCell id="1" parent="0" />
        <mxCell id="d7sYHIAtsYw5JPwzrbe_-30" style="edgeStyle=orthogonalEdgeStyle;rounded=0;orthogonalLoop=1;jettySize=auto;html=1;exitX=0.5;exitY=1;exitDx=0;exitDy=0;entryX=0.5;entryY=0;entryDx=0;entryDy=0;" edge="1" parent="1" source="d7sYHIAtsYw5JPwzrbe_-26" target="d7sYHIAtsYw5JPwzrbe_-29">
          <mxGeometry relative="1" as="geometry" />
        </mxCell>
        <mxCell id="d7sYHIAtsYw5JPwzrbe_-35" style="edgeStyle=orthogonalEdgeStyle;rounded=0;orthogonalLoop=1;jettySize=auto;html=1;exitX=1;exitY=0.5;exitDx=0;exitDy=0;entryX=1;entryY=0;entryDx=0;entryDy=0;dashed=1;" edge="1" parent="1" source="d7sYHIAtsYw5JPwzrbe_-29" target="d7sYHIAtsYw5JPwzrbe_-33">
          <mxGeometry relative="1" as="geometry" />
        </mxCell>
        <mxCell id="d7sYHIAtsYw5JPwzrbe_-36" value="Dane Osobowe są w XML" style="edgeLabel;html=1;align=center;verticalAlign=middle;resizable=0;points=[];" vertex="1" connectable="0" parent="d7sYHIAtsYw5JPwzrbe_-35">
          <mxGeometry x="-0.4656" y="-2" relative="1" as="geometry">
            <mxPoint as="offset" />
          </mxGeometry>
        </mxCell>
        <mxCell id="d7sYHIAtsYw5JPwzrbe_-26" value="User uruchamia plik" style="rounded=1;whiteSpace=wrap;html=1;" vertex="1" parent="1">
          <mxGeometry x="354" y="140" width="136" height="60" as="geometry" />
        </mxCell>
        <mxCell id="d7sYHIAtsYw5JPwzrbe_-32" style="edgeStyle=orthogonalEdgeStyle;rounded=0;orthogonalLoop=1;jettySize=auto;html=1;exitX=0.5;exitY=1;exitDx=0;exitDy=0;entryX=0.5;entryY=0;entryDx=0;entryDy=0;" edge="1" parent="1" source="d7sYHIAtsYw5JPwzrbe_-29" target="d7sYHIAtsYw5JPwzrbe_-31">
          <mxGeometry relative="1" as="geometry" />
        </mxCell>
        <mxCell id="d7sYHIAtsYw5JPwzrbe_-29" value="Sprawdź podpis i wyciągnij plik z XML" style="rounded=0;whiteSpace=wrap;html=1;" vertex="1" parent="1">
          <mxGeometry x="362" y="270" width="120" height="60" as="geometry" />
        </mxCell>
        <mxCell id="d7sYHIAtsYw5JPwzrbe_-34" value="PDF" style="edgeStyle=orthogonalEdgeStyle;rounded=0;orthogonalLoop=1;jettySize=auto;html=1;exitX=1;exitY=0.5;exitDx=0;exitDy=0;entryX=0.5;entryY=0;entryDx=0;entryDy=0;" edge="1" parent="1" source="d7sYHIAtsYw5JPwzrbe_-31" target="d7sYHIAtsYw5JPwzrbe_-33">
          <mxGeometry relative="1" as="geometry" />
        </mxCell>
        <mxCell id="d7sYHIAtsYw5JPwzrbe_-38" value="Coś innego" style="edgeStyle=orthogonalEdgeStyle;rounded=0;orthogonalLoop=1;jettySize=auto;html=1;exitX=0.5;exitY=1;exitDx=0;exitDy=0;entryX=0.5;entryY=0;entryDx=0;entryDy=0;" edge="1" parent="1" source="d7sYHIAtsYw5JPwzrbe_-31" target="d7sYHIAtsYw5JPwzrbe_-37">
          <mxGeometry relative="1" as="geometry" />
        </mxCell>
        <mxCell id="d7sYHIAtsYw5JPwzrbe_-45" style="edgeStyle=orthogonalEdgeStyle;rounded=0;orthogonalLoop=1;jettySize=auto;html=1;exitX=0;exitY=0.5;exitDx=0;exitDy=0;entryX=0.5;entryY=0;entryDx=0;entryDy=0;" edge="1" parent="1" source="d7sYHIAtsYw5JPwzrbe_-31" target="d7sYHIAtsYw5JPwzrbe_-44">
          <mxGeometry relative="1" as="geometry" />
        </mxCell>
        <mxCell id="d7sYHIAtsYw5JPwzrbe_-46" value="XML" style="edgeLabel;html=1;align=center;verticalAlign=middle;resizable=0;points=[];" vertex="1" connectable="0" parent="d7sYHIAtsYw5JPwzrbe_-45">
          <mxGeometry x="-0.3099" relative="1" as="geometry">
            <mxPoint as="offset" />
          </mxGeometry>
        </mxCell>
        <mxCell id="d7sYHIAtsYw5JPwzrbe_-31" value="Czym jest ten plik?" style="rhombus;whiteSpace=wrap;html=1;" vertex="1" parent="1">
          <mxGeometry x="322" y="400" width="200" height="80" as="geometry" />
        </mxCell>
        <mxCell id="d7sYHIAtsYw5JPwzrbe_-52" style="edgeStyle=orthogonalEdgeStyle;rounded=0;orthogonalLoop=1;jettySize=auto;html=1;exitX=0.5;exitY=1;exitDx=0;exitDy=0;entryX=1;entryY=0.5;entryDx=0;entryDy=0;" edge="1" parent="1" source="d7sYHIAtsYw5JPwzrbe_-33" target="d7sYHIAtsYw5JPwzrbe_-37">
          <mxGeometry relative="1" as="geometry" />
        </mxCell>
        <mxCell id="d7sYHIAtsYw5JPwzrbe_-33" value="Wywalanie danych osobowych" style="rounded=0;whiteSpace=wrap;html=1;" vertex="1" parent="1">
          <mxGeometry x="550" y="520" width="120" height="60" as="geometry" />
        </mxCell>
        <mxCell id="d7sYHIAtsYw5JPwzrbe_-40" style="edgeStyle=orthogonalEdgeStyle;rounded=0;orthogonalLoop=1;jettySize=auto;html=1;exitX=0.5;exitY=1;exitDx=0;exitDy=0;entryX=0.5;entryY=0;entryDx=0;entryDy=0;" edge="1" parent="1" source="d7sYHIAtsYw5JPwzrbe_-37" target="d7sYHIAtsYw5JPwzrbe_-39">
          <mxGeometry relative="1" as="geometry" />
        </mxCell>
        <mxCell id="d7sYHIAtsYw5JPwzrbe_-37" value="Skopiuj plik do tempfile i zmień zakończenie" style="rounded=0;whiteSpace=wrap;html=1;" vertex="1" parent="1">
          <mxGeometry x="362" y="520" width="120" height="60" as="geometry" />
        </mxCell>
        <mxCell id="d7sYHIAtsYw5JPwzrbe_-39" value="Otwórz plik w domyślnym programie" style="rounded=0;whiteSpace=wrap;html=1;" vertex="1" parent="1">
          <mxGeometry x="362" y="620" width="120" height="60" as="geometry" />
        </mxCell>
        <mxCell id="d7sYHIAtsYw5JPwzrbe_-43" style="edgeStyle=orthogonalEdgeStyle;rounded=0;orthogonalLoop=1;jettySize=auto;html=1;entryX=1;entryY=0.5;entryDx=0;entryDy=0;dashed=1;" edge="1" parent="1" source="d7sYHIAtsYw5JPwzrbe_-41" target="d7sYHIAtsYw5JPwzrbe_-39">
          <mxGeometry relative="1" as="geometry" />
        </mxCell>
        <mxCell id="d7sYHIAtsYw5JPwzrbe_-41" value="Tym się zajmie System Operacyjny" style="text;html=1;align=center;verticalAlign=middle;resizable=0;points=[];autosize=1;strokeColor=none;fillColor=none;" vertex="1" parent="1">
          <mxGeometry x="530" y="640" width="200" height="20" as="geometry" />
        </mxCell>
        <mxCell id="d7sYHIAtsYw5JPwzrbe_-48" style="edgeStyle=orthogonalEdgeStyle;rounded=0;orthogonalLoop=1;jettySize=auto;html=1;exitX=0.5;exitY=1;exitDx=0;exitDy=0;entryX=0.5;entryY=0;entryDx=0;entryDy=0;" edge="1" parent="1" source="d7sYHIAtsYw5JPwzrbe_-44" target="d7sYHIAtsYw5JPwzrbe_-47">
          <mxGeometry relative="1" as="geometry" />
        </mxCell>
        <mxCell id="d7sYHIAtsYw5JPwzrbe_-44" value="Walidacja Schemy" style="rounded=0;whiteSpace=wrap;html=1;" vertex="1" parent="1">
          <mxGeometry x="200" y="520" width="120" height="60" as="geometry" />
        </mxCell>
        <mxCell id="d7sYHIAtsYw5JPwzrbe_-47" value="Przekaż plik XML do aplikacji w electronie" style="rounded=0;whiteSpace=wrap;html=1;" vertex="1" parent="1">
          <mxGeometry x="200" y="620" width="120" height="60" as="geometry" />
        </mxCell>
        <mxCell id="d7sYHIAtsYw5JPwzrbe_-50" style="edgeStyle=orthogonalEdgeStyle;rounded=0;orthogonalLoop=1;jettySize=auto;html=1;entryX=0;entryY=0.5;entryDx=0;entryDy=0;dashed=1;" edge="1" parent="1" source="d7sYHIAtsYw5JPwzrbe_-49" target="d7sYHIAtsYw5JPwzrbe_-26">
          <mxGeometry relative="1" as="geometry" />
        </mxCell>
        <mxCell id="d7sYHIAtsYw5JPwzrbe_-49" value="W windowsie można otwożyć plik przeciągając go na ikonkę" style="text;html=1;strokeColor=none;fillColor=none;align=center;verticalAlign=middle;whiteSpace=wrap;rounded=0;" vertex="1" parent="1">
          <mxGeometry x="170" y="155" width="120" height="30" as="geometry" />
        </mxCell>
      </root>
    </mxGraphModel>
  </diagram>
</mxfile>
